<svg width="63" height="16" viewBox="0 0 63 16" fill="none" xmlns="http://www.w3.org/2000/svg">
<path d="M5.156 3.144L2.276 12H3.8L4.472 9.9L4.82 8.568L5.89246 5H6.24354L7.316 8.568L7.676 9.9L8.36 12H9.908L7.028 3.144H5.156Z" fill="white"/>
<path d="M12.592 12.048C12.832 12.064 13.044 12.072 13.228 12.072C13.748 12.072 14.192 12.024 14.56 11.928C14.936 11.824 15.224 11.648 15.424 11.4C15.624 11.152 15.724 10.812 15.724 10.38V9.852C15.724 9.324 15.572 8.916 15.268 8.628C14.964 8.34 14.496 8.196 13.864 8.196H12.868C12.668 8.196 12.496 8.18 12.352 8.148C12.208 8.116 12.1 8.056 12.028 7.968C11.956 7.88 11.92 7.748 11.92 7.572V7.344C11.92 7.072 11.996 6.888 12.148 6.792C12.308 6.688 12.536 6.636 12.832 6.636H15.448V5.76C15.288 5.712 15.072 5.672 14.8 5.64C14.528 5.6 14.244 5.568 13.948 5.544C13.652 5.52 13.376 5.508 13.12 5.508C12.512 5.508 12.024 5.58 11.656 5.724C11.296 5.86 11.036 6.064 10.876 6.336C10.724 6.6 10.648 6.936 10.648 7.344V7.704C10.648 8.128 10.732 8.464 10.9 8.712C11.068 8.96 11.296 9.136 11.584 9.24C11.88 9.344 12.216 9.396 12.592 9.396H13.564C13.892 9.396 14.12 9.456 14.248 9.576C14.384 9.688 14.452 9.844 14.452 10.044V10.272C14.452 10.464 14.416 10.608 14.344 10.704C14.272 10.8 14.164 10.864 14.02 10.896C13.884 10.928 13.716 10.944 13.516 10.944H10.744V11.82C10.872 11.86 11.036 11.896 11.236 11.928C11.436 11.96 11.652 11.984 11.884 12C12.124 12.024 12.36 12.04 12.592 12.048Z" fill="white"/>
<path d="M18.1591 11.796C18.4551 11.932 18.8351 12 19.2991 12H20.3671V10.908L19.5631 10.824C19.4671 10.816 19.3751 10.796 19.2871 10.764C19.1991 10.732 19.1151 10.68 19.0351 10.608C18.9631 10.528 18.9071 10.424 18.8671 10.296C18.8271 10.16 18.8071 9.988 18.8071 9.78V6.768H20.4391V5.568H18.8071V3.768H17.6431L17.4271 5.568L16.3711 5.808V6.768H17.3791L17.3311 9.792C17.3231 10.328 17.3831 10.76 17.5111 11.088C17.6471 11.416 17.8631 11.652 18.1591 11.796Z" fill="white"/>
<path d="M21.5294 5.568V12H23.0174V7.8C23.1934 7.624 23.3694 7.48 23.5454 7.368C23.7214 7.248 23.9094 7.16 24.1094 7.104C24.3174 7.048 24.5454 7.02 24.7934 7.02C24.9134 7.02 25.0374 7.024 25.1654 7.032C25.2934 7.04 25.4134 7.052 25.5254 7.068V5.556C25.4454 5.532 25.3574 5.516 25.2614 5.508C25.1654 5.492 25.0734 5.484 24.9854 5.484C24.5534 5.484 24.1814 5.592 23.8694 5.808C23.5574 6.024 23.2734 6.288 23.0174 6.6L22.6814 5.568H21.5294Z" fill="white"/>
<path fill-rule="evenodd" clip-rule="evenodd" d="M27.9368 11.904C28.3048 12.008 28.7408 12.06 29.2448 12.06C29.7648 12.06 30.2088 12.012 30.5768 11.916C30.9448 11.812 31.2448 11.64 31.4768 11.4C31.7088 11.152 31.8768 10.816 31.9808 10.392C32.0928 9.96 32.1488 9.42 32.1488 8.772C32.1488 8.116 32.0928 7.576 31.9808 7.152C31.8688 6.72 31.6968 6.384 31.4648 6.144C31.2328 5.904 30.9328 5.736 30.5648 5.64C30.1968 5.536 29.7568 5.484 29.2448 5.484C28.7488 5.484 28.3168 5.532 27.9488 5.628C27.5808 5.716 27.2768 5.884 27.0368 6.132C26.8048 6.372 26.6328 6.708 26.5208 7.14C26.4088 7.564 26.3528 8.108 26.3528 8.772C26.3528 9.412 26.4088 9.944 26.5208 10.368C26.6328 10.792 26.8048 11.128 27.0368 11.376C27.2688 11.624 27.5688 11.8 27.9368 11.904ZM29.8808 10.812C29.7048 10.852 29.4928 10.872 29.2448 10.872C29.0048 10.872 28.7968 10.852 28.6208 10.812C28.4448 10.764 28.3008 10.672 28.1888 10.536C28.0768 10.392 27.9888 10.18 27.9248 9.9C27.8688 9.612 27.8408 9.232 27.8408 8.76C27.8408 8.296 27.8688 7.924 27.9248 7.644C27.9888 7.364 28.0768 7.156 28.1888 7.02C28.3008 6.876 28.4448 6.784 28.6208 6.744C28.7968 6.696 29.0048 6.672 29.2448 6.672C29.4928 6.672 29.7048 6.696 29.8808 6.744C30.0568 6.784 30.2008 6.876 30.3128 7.02C30.4328 7.156 30.5208 7.364 30.5768 7.644C30.6328 7.924 30.6608 8.296 30.6608 8.76C30.6608 9.232 30.6328 9.612 30.5768 9.9C30.5208 10.18 30.4328 10.392 30.3128 10.536C30.2008 10.672 30.0568 10.764 29.8808 10.812Z" fill="white"/>
<path d="M35.0188 3.144H33.5428V12H35.0188V8.304H38.7508V12H40.2388V3.144H38.7508V6.972H35.0188V3.144Z" fill="white"/>
<path d="M42.3063 11.58C42.6343 11.908 43.0943 12.072 43.6863 12.072C44.1183 12.072 44.5263 11.996 44.9103 11.844C45.3023 11.692 45.6503 11.52 45.9543 11.328L46.2303 12H47.4423V5.568H45.9543V10.236C45.7223 10.404 45.4743 10.532 45.2103 10.62C44.9463 10.708 44.6743 10.752 44.3943 10.752C44.0583 10.752 43.7903 10.68 43.5903 10.536C43.3983 10.392 43.3023 10.108 43.3023 9.684V5.568H41.8143V10.116C41.8143 10.756 41.9783 11.244 42.3063 11.58Z" fill="white"/>
<path d="M48.9396 5.568V12H50.4276V7.332C50.5956 7.22 50.7596 7.124 50.9196 7.044C51.0796 6.964 51.2476 6.904 51.4236 6.864C51.6076 6.824 51.8036 6.804 52.0116 6.804C52.2356 6.804 52.4236 6.848 52.5756 6.936C52.7356 7.024 52.8596 7.148 52.9476 7.308C53.0356 7.468 53.0796 7.664 53.0796 7.896V12H54.5676V7.716C54.5676 7.308 54.5036 6.932 54.3756 6.588C54.2556 6.244 54.0516 5.972 53.7636 5.772C53.4756 5.564 53.0796 5.46 52.5756 5.46C52.1676 5.46 51.7716 5.54 51.3876 5.7C51.0116 5.86 50.6916 6.04 50.4276 6.24L50.1516 5.568H48.9396Z" fill="white"/>
<path d="M57.2529 11.796C57.5489 11.932 57.9289 12 58.3929 12H59.4609V10.908L58.6569 10.824C58.5609 10.816 58.4689 10.796 58.3809 10.764C58.2929 10.732 58.2089 10.68 58.1289 10.608C58.0569 10.528 58.0009 10.424 57.9609 10.296C57.9209 10.16 57.9009 9.988 57.9009 9.78V6.768H59.5329V5.568H57.9009V3.768H56.7369L56.5209 5.568L55.4649 5.808V6.768H56.4729L56.4249 9.792C56.4169 10.328 56.4769 10.76 56.6049 11.088C56.7409 11.416 56.9569 11.652 57.2529 11.796Z" fill="white"/>
</svg>
